<svg xmlns="http://www.w3.org/2000/svg" viewBox="0 0 500 500"><g id="freepik--background-complete--inject-38"><path d="M447,327.12c-6.41,5.13-16.11,5.42-16.11,5.42s-6-7.62-6.21-15.82c-.16-6.84,4.38-12,9.33-11.32,7.1,1,3.65,12.6,3.65,12.6s6.65-10.1,12-5.31C453.43,316,452.37,322.84,447,327.12Z" style="fill:#ebebeb"></path><path d="M74.77,351c1.27,8.1-3.29,16.67-3.29,16.67s-9.6,1.45-16.81-2.45c-6-3.25-8.28-9.77-5.21-13.72,4.41-5.66,12.76,3.08,12.76,3.08s-5.47-10.78,1.34-13.06C68.3,340,73.7,344.25,74.77,351Z" style="fill:#ebebeb"></path><path d="M280.61,97.38c-.91,4.35-4.85,7.83-4.85,7.83s-5.15-1.1-8.06-4.45c-2.43-2.8-2.33-6.54,0-8,3.31-2,5.88,4,5.88,4s-.72-6.51,3.17-6.36C279.44,90.54,281.36,93.75,280.61,97.38Z" style="fill:#ebebeb"></path><path d="M124.9,421.69c-12,11.78-31.81,14.37-31.81,14.37S79.24,421.72,77.16,405c-1.73-13.94,6.49-25.49,16.76-25.05,14.72.63,10,25,10,25s11.52-22,23.44-13.31C135.7,397.71,134.94,411.86,124.9,421.69Z" style="fill:#ebebeb"></path></g><g id="freepik--heart-2--inject-38"><path d="M407.76,319.55C361.05,413.74,250,469.63,250,469.63S138.86,413.74,92.24,319.55C53.35,241,78,156.08,139.38,137.53c88-26.61,110.58,74.32,110.58,74.32s22.58-100.93,110.66-74.32C422,156.08,446.65,241,407.76,319.55Z" style="fill:#FF0068"></path><path d="M407.76,319.55C361.05,413.74,250,469.63,250,469.63S138.86,413.74,92.24,319.55C53.35,241,78,156.08,139.38,137.53c88-26.61,110.58,74.32,110.58,74.32s22.58-100.93,110.66-74.32C422,156.08,446.65,241,407.76,319.55Z" style="fill:#fff;opacity:0.5"></path></g><g id="freepik--hearts-1--inject-38"><path d="M268.2,148.3c-10.26,7-24.91,6.27-24.91,6.27s-8.18-12.18-7.51-24.56c.56-10.32,8-17.62,15.39-16,10.59,2.37,4,19.42,4,19.42S266.4,119,273.9,126.87C279.14,132.33,276.75,142.48,268.2,148.3Z" style="fill:#FF0068"></path><path d="M235.63,90.89c-1.24,8.11-8.17,14.9-8.17,14.9s-9.59-1.51-15.29-7.41c-4.76-4.92-4.94-11.82-.82-14.65,5.92-4.07,11.23,6.79,11.23,6.79s-2-11.93,5.22-12C232.81,78.4,236.66,84.12,235.63,90.89Z" style="fill:#FF0068"></path><path d="M79.65,293.62c-1.24,8.11-8.17,14.9-8.17,14.9s-9.59-1.52-15.29-7.41c-4.76-4.92-4.94-11.82-.82-14.66,5.91-4.06,11.23,6.8,11.23,6.8s-2-11.94,5.22-12.05C76.83,281.12,80.68,286.85,79.65,293.62Z" style="fill:#FF0068"></path><path d="M446,220.61c-4.68,11.49-17.26,19-17.26,19s-13.56-5.61-19.86-16.29c-5.26-8.9-3.09-19.1,4-21.82,10.12-3.89,14.1,13.94,14.1,13.94s1.33-18.23,11.92-15.86C446.23,201.26,449.87,211,446,220.61Z" style="fill:#FF0068"></path></g><g id="freepik--character-hand-2--inject-38"><path d="M430.23,0c-4.48,40.64-10.68,82.4-15.35,108-9.39,51.45-30.48,124.27-39.66,156a.93.93,0,0,1,0,.13c-2.45,8.51-4,14-4.31,15.37-.83,4.11-7.71,5.51-18,5a158.4,158.4,0,0,1-19.84-2.39,391.54,391.54,0,0,1-56.58-14.91c-17.74-6.11-32.54-12.79-38.35-18.16-2.12-2-3-3.74-2.46-5.27v0c.25-.67.73-1.76,1.42-3.24s1.45-3.13,2.43-5.18c2.84-5.95,7-14.43,11.89-24.43,2.52-5.17,5.24-10.74,8.09-16.56.45-.92.91-1.85,1.36-2.79.27-.53.52-1.06.78-1.6q1.24-2.53,2.5-5.13C280.93,150.4,300.29,110,308,89.48,311.17,81.11,326,42.06,342,0Z" style="fill: rgb(211, 118, 106);"></path><path d="M263.55,383.38c.33,8.58,15.17,27.48,17.3,27.48s37.27,4.8,38.63,16.38c1.86,15.73-38.24,18-49.89,15.73-15.25-3-42.22-25.26-45.87-38s-4.78-72.24-4.78-72.24l50.9,2.06S263.3,376.76,263.55,383.38Z" style="fill: rgb(211, 118, 106);"></path><path d="M263.55,383.38c.33,8.58,15.17,27.48,17.3,27.48s37.27,4.8,38.63,16.38c1.86,15.73-38.24,18-49.89,15.73-15.25-3-42.22-25.26-45.87-38s-4.78-72.24-4.78-72.24l50.9,2.06S263.3,376.76,263.55,383.38Z" style="opacity:0.1"></path><path d="M217.53,287.44s-17.12,73.31-18.23,93.21,17.35,57.09,32.17,66.64,22.32-6.1,18.84-26.88-9.73-43.75-7.37-50.34,21.9-53.64,21.9-53.64Z" style="fill: rgb(211, 118, 106);"></path><path d="M263.78,196.38s-10.21,10.87-31,50.67c-22.3,42.75-29.3,116.65-21.15,148.37,4.85,18.88,41.9,75.55,64.28,60.74,13.44-8.89-13.5-54.73-15.95-62.69-3.39-11,6.93-42.17,18.77-49.84,7.85-5.08,17-7.09,25.44-5.31,11.58,2.42,36.08-4.34,48.94-16.88,8.84-8.62,25.65-25.51,20.42-56.25Z" style="fill: rgb(211, 118, 106);"></path><path d="M373.57,265.19s6.67,37.52-12.35,84.51c-9.36,23.12-12.8,60.68-16.58,80.26-4.56,23.6-28.65,10.31-32.06-11.79-4.13-26.85,1-45.43,1.71-56.33,1.16-18.67-10.08-23.52-10.08-23.52Z" style="fill: rgb(211, 118, 106);"></path><path d="M208.53,354.57c.89,12.84.95,26,4.33,38.3a180.15,180.15,0,0,0,24.52,44.93c2.6,3.44,5.4,6.72,8.31,10a84.16,84.16,0,0,1-9.76-8.74A125.91,125.91,0,0,1,209.18,394c-3.06-12.89-2.33-26.35-.65-39.38Z" style="fill:#263238"></path></g><g id="freepik--character-hand-1--inject-38"><path d="M270.35,267.22A402.35,402.35,0,0,1,227,299.89c-4.89,3.23-9.79,6.31-14.53,9.14l-.5.3c-9.89,5.87-19.12,10.65-26.52,13.47-1.81.69-3.52,1.26-5.09,1.71-6.08,1.71-10.25,1.49-11.53-1.4-.45-1-2.9-5.23-6.74-11.83-1.58-2.72-3.39-5.84-5.39-9.31C135.9,265.91,101.53,192.28,87.5,144.31,79.44,116.73,71,52.44,66.82,0h82.67c18.31,44.94,36.75,90,41.87,97.89,12.6,19.33,35.59,60.55,60.33,94.16q.45.62.9,1.2l.8,1.11q3,4,5.76,7.82l7.14,9.67,6.37,8.64c8.47,11.5,14.47,19.69,16,22C291.15,246.24,283.2,255.83,270.35,267.22Z" style="fill: rgb(235, 148, 129);"></path><path d="M223.66,373.4c-6.55-5.28-9.36-1.88-6,12.7,3.35,14.76,19.29,57.69-9.29,65.49-9.87,2.69-15.46-24.46-23.76-45-8.41-20.81-19.44-41.24-21.49-54.05-3.47-21.7.24-57.66.24-57.66C173.21,308.66,204,346.58,223.66,373.4Z" style="fill: rgb(235, 148, 129);"></path><path d="M266.8,211.47c14,16.53,41.43,47.18,53.74,63,14.88,19.07,16.07,32.19,23.6,54.91a189.11,189.11,0,0,1,6.5,28.9c1.62,11-2.95,17.32-2.95,17.32.07,10.82.05,17.56-1.27,21.91A27.88,27.88,0,0,1,340.87,408c-1.43,10.25-5,15.82-9.25,18.9-5,3.69-11.7,2-11.7,2s1.7,5,1.7,6.73c0,8.53-12.32,18.57-20.39,16.56-13.47-3.34-33.62-13.66-39.09-20.24-8.7-10.47-50.38-53.66-64-74.32-11.11-16.85-30.31-61.5-37.67-70.11Z" style="fill: rgb(235, 148, 129);"></path><path d="M322.64,303.24c0,4.78,2.53,9.18,4.25,13.54,1.25,2.92,4.56,10.11,5.93,13.1,5.1,11.64,10.94,23.64,14,36a52.71,52.71,0,0,1,.88,9.67,88.21,88.21,0,0,0-2.33-9.29c-4.76-11.8-10.83-23.21-15.61-35.06a143.43,143.43,0,0,1-6.38-18.29c-.66-3.13-1.64-6.51-.73-9.68Z" style="fill:#263238"></path><path d="M265.12,353.81c9.86,12,18.79,24.72,27.4,37.66,8.44,12.91,18.38,24.85,27.4,37.42-11.17-10.88-21.61-22.5-30.31-35.5-8.44-12.81-17.13-26.14-24.49-39.58Z" style="fill:#263238"></path><path d="M340.87,408c-1.7-5.39-3-11-5.08-16.22-1.51-3.23-7.3-10.86-9.31-14-5.31-7.79-10.64-15.83-15.6-23.88-2.75-4.82-6.37-10-8.18-15.21a52.6,52.6,0,0,1-2.5-11.21A73.17,73.17,0,0,0,304,338.16c1.26,3,4.16,6.81,6,9.47,6.57,9.31,13,18.74,19.21,28.3,3,5,6.52,9.64,8.75,15a98.74,98.74,0,0,1,2.84,17Z" style="fill:#263238"></path><path d="M221,386.1c-6.1-5-10.68-12-15.08-18.44s-8.5-13.17-13.37-19.47c6.57,4.61,11.46,11.23,15.87,17.81s8.31,13.52,12.58,20.1Z" style="fill:#263238"></path><path d="M278.62,214.2,271,219.56l-1.31.93L229,249.06l-6.68,4.7-59.64,41.91-1.16.82-1.43,1L153.74,302l-7,4.93S77.23,162.49,72.22,141.07C67.15,119.38,62.49,56.63,59.6,0h90.84c17,39.61,33.53,77.79,37.68,86.64,5.26,11.21,39.73,64.15,66.91,98.2,11.62,14.55,20.59,25.66,23,28.59Z" style="fill:#FF0068"></path><path d="M153.81,203.29a39,39,0,0,0-9.79,5.17,42.55,42.55,0,0,0,20.57-7.62A38.92,38.92,0,0,0,153.81,203.29ZM77.34,111.36a39.83,39.83,0,0,0-9,4.61c-.26.17-.52.36-.77.55.28,0,.55,0,.82-.08a41.54,41.54,0,0,0,10-2.4,39,39,0,0,0,9.79-5.17A37.59,37.59,0,0,0,77.34,111.36ZM156.42,288a39.7,39.7,0,0,0-9.82,5.17,39.5,39.5,0,0,0,10.81-2.46,38.83,38.83,0,0,0,9.79-5.17A39.46,39.46,0,0,0,156.42,288ZM67.1,2.49a44.41,44.41,0,0,0-7.19,3.39c0,.48.05,1,.07,1.45a45,45,0,0,0,8.11-2.16A39,39,0,0,0,77.88,0,37.74,37.74,0,0,0,67.1,2.49Zm185.53,197a39.18,39.18,0,0,0-9.79,5.13A42.28,42.28,0,0,0,263.41,197,37.74,37.74,0,0,0,252.63,199.5Zm-56.92-41.27a39.18,39.18,0,0,0-5.13-9.79A42.28,42.28,0,0,0,198.2,169,38,38,0,0,0,195.71,158.23ZM151.83,30.55a39.29,39.29,0,0,0-5.16-9.79,38.31,38.31,0,0,0,2.48,10.78,38.89,38.89,0,0,0,5.14,9.79A37.89,37.89,0,0,0,151.83,30.55ZM114.3,160.47a38,38,0,0,0-10.56-3.29,37.51,37.51,0,0,0,9.38,5.87,39.21,39.21,0,0,0,10.59,3.28A38.19,38.19,0,0,0,114.3,160.47ZM94.24,45.38A39,39,0,0,0,91,55.93a38.76,38.76,0,0,0,5.9-9.37A39.64,39.64,0,0,0,100.11,36,38.4,38.4,0,0,0,94.24,45.38ZM197.66,239.52a39.22,39.22,0,0,0-3.29,10.59,42.49,42.49,0,0,0,9.15-20A39.6,39.6,0,0,0,197.66,239.52Zm-81.14,3.61c.37.78.73,1.56,1.09,2.33a30.31,30.31,0,0,0,1.25-5.34A27.65,27.65,0,0,0,116.52,243.13Zm28.07-139.87a38.3,38.3,0,0,0-3.25,10.55,38.53,38.53,0,0,0,5.87-9.37,39.32,39.32,0,0,0,3.28-10.59A39.58,39.58,0,0,0,144.59,103.26Z" style="fill:#fff"></path><path d="M253,189.76c-10.38,5-48.87,30.76-58.56,37.37s-47.2,34.51-56.56,41.47c-.42.32.22,1,.66.75,10-6.31,106.5-71.17,114.8-79.11C253.47,190.07,253.23,189.63,253,189.76Z" style="fill:#263238"></path></g></svg>